#!OML:ASF H:\Terrain\Patient Classification 1\Terrain2\Thursday\justin.ASF
:FULLY-SPECIFIED
:DEGREES
401
root 8.75579 17.5874 14.0791 4.23941 -3.01914 -7.60989
lowerback 4.86359 1.71975 9.0171
upperback 0.136069 2.87561 3.44192
thorax -2.32949 1.34566 -1.6628
lowerneck -16.6195 -2.22047 -8.12767
upperneck 19.7257 -1.8702 4.20794
head 9.05672 -1.0292 2.55509
rclavicle -5.96354e-015 -7.15625e-015
rhumerus -23.4538 -7.49841 -77.6814
rradius 36.4872
rwrist -9.57687
rhand -18.0674 11.5356
rfingers 7.12502
rthumb 8.20526 -18.2851
lclavicle -5.96354e-015 -7.15625e-015
lhumerus -43.5857 13.9066 76.9888
lradius 27.6317
lwrist -0.0604801
lhand -15.5988 21.955
lfingers 7.12502
lthumb 10.5872 51.6683
rfemur 15.4524 -3.4567 30.9155
rtibia 11.0991
rfoot -7.32227 7.06993
rtoes -14.9073
lfemur -33.9163 6.04607 -13.5808
ltibia 26.0964
lfoot -10.0188 -4.11983
ltoes -16.6784
402
root 8.76304 17.5479 14.2185 4.19635 -2.90333 -7.65093
lowerback 4.94777 1.60067 8.84361
upperback 0.08113 2.72567 3.53669
thorax -2.46083 1.26758 -1.46508
lowerneck -16.5566 -2.24571 -8.30553
upperneck 19.7306 -1.91986 4.45271
head 9.05409 -1.04009 2.66326
rclavicle -2.05245e-014 -4.6118e-014
rhumerus -23.7254 -7.01173 -77.8428
rradius 37.3039
rwrist -10.0138
rhand -18.7209 11.2565
rfingers 7.12502
rthumb 7.57452 -18.5879
lclavicle -2.05245e-014 -4.6118e-014
lhumerus -43.5439 14.383 76.7579
lradius 26.4958
lwrist -1.0553
lhand -15.3233 21.8587
lfingers 7.12502
lthumb 10.8529 51.5583
rfemur 15.8513 -3.60076 30.8958
rtibia 11.4305
rfoot -7.07022 6.96928
rtoes -14.1077
lfemur -33.7074 7.0248 -14.1488
ltibia 26.9935
lfoot -10.2412 -5.49098
ltoes -18.4311
403
root 8.77171 17.5235 14.3624 3.97661 -2.87312 -7.34934
lowerback 5.16529 1.51714 8.35151
upperback 0.105602 2.61091 3.53267
thorax -2.58858 1.2129 -1.19911
lowerneck -16.5484 -2.36182 -8.47133
upperneck 19.6604 -2.07831 4.63448
head 9.04334 -1.10629 2.73264
rclavicle 9.59136e-015 -1.90833e-014
rhumerus -24.0126 -6.50252 -78.0318
rradius 37.9775
rwrist -10.8328
rhand -19.2367 11.5861
rfingers 7.12502
rthumb 7.0767 -18.2756
lclavicle 9.59136e-015 -1.90833e-014
lhumerus -43.2731 15.0396 76.4672
lradius 25.2007
lwrist -2.30886
lhand -14.6975 22.1134
lfingers 7.12502
lthumb 11.4565 51.7804
rfemur 16.2925 -3.40039 30.5424
rtibia 11.909
rfoot -6.63869 6.81641
rtoes -13.4378
lfemur -33.148 7.23809 -14.7364
ltibia 27.7703
lfoot -10.2815 -6.2598
ltoes -17.4944
404
root 8.78182 17.5078 14.5227 3.63972 -3.03061 -7.16279
lowerback 5.3073 1.49791 7.99508
upperback 0.203239 2.57372 3.55992
thorax -2.58584 1.20129 -0.975622
lowerneck -16.5179 -2.43099 -8.38884
upperneck 19.525 -2.15334 4.44359
head 8.99422 -1.15447 2.64143
rclavicle 3.21534e-014 2.3059e-014
rhumerus -24.48 -6.23839 -78.1073
rradius 38.7409
rwrist -11.3071
rhand -19.4636 11.033
rfingers 7.12502
rthumb 6.85767 -18.8359
lclavicle 3.21534e-014 2.3059e-014
lhumerus -42.9607 15.7615 76.1146
lradius 23.8394
lwrist -3.58134
lhand -13.9022 22.1446
lfingers 7.12502
lthumb 12.2234 51.7674
rfemur 16.6506 -2.96926 30.275
rtibia 12.9159
rfoot -6.69592 6.81302
rtoes -12.0253
lfemur -32.3228 7.25911 -15.0292
ltibia 28.1943
lfoot -9.50426 -6.40009
ltoes -16.9198
405
root 8.8017 17.5302 14.7029 3.40547 -3.31824 -7.07945
lowerback 5.10358 1.52854 7.90845
upperback 0.338372 2.57507 3.53817
thorax -2.33296 1.21394 -0.941521
lowerneck -16.4035 -2.46993 -8.22881
upperneck 19.4398 -2.21031 4.23011
head 8.94423 -1.19234 2.53309
rclavicle -3.12589e-014 0
rhumerus -24.9207 -6.22929 -78.1167
rradius 39.4509
rwrist -11.0284
rhand -19.6734 9.92744
rfingers 7.12502
rthumb 6.65506 -19.948
lclavicle -3.12589e-014 0
lhumerus -42.7215 16.4509 75.6968
lradius 22.5526
lwrist -4.75563
lhand -13.1081 22.4241
lfingers 7.12502
lthumb 12.989 51.9997
rfemur 16.9729 -2.71752 29.9311
rtibia 14.0414
rfoot -5.77437 7.0556
rtoes -12.7575
lfemur -31.5935 6.86941 -15.0335
ltibia 28.4091
lfoot -8.61492 -6.17061
ltoes -17.1148
406
root 8.82448 17.5622 14.8812 3.24975 -3.49185 -7.02864
lowerback 4.90914 1.51794 7.95327
upperback 0.440351 2.53113 3.43875
thorax -2.11417 1.20052 -1.05804
lowerneck -16.3977 -2.48206 -8.10647
upperneck 19.4743 -2.29563 4.38365
head 8.96001 -1.20731 2.55553
rclavicle 1.54058e-014 -2.38542e-015
rhumerus -25.1839 -6.5222 -78.1493
rradius 39.8896
rwrist -9.90383
rhand -18.7668 11.3941
rfingers 7.12502
rthumb 7.5302 -18.4518
lclavicle 1.54058e-014 -2.38542e-015
lhumerus -42.4582 17.3983 75.0276
lradius 21.3113
lwrist -6.33854
lhand -12.4899 22.977
lfingers 7.12502
lthumb 13.5848 52.5137
rfemur 16.7459 -2.40263 29.6829
rtibia 15.4404
rfoot -4.00946 7.27748
rtoes -12.8913
lfemur -31.0692 6.04575 -14.8551
ltibia 28.4777
lfoot -7.87542 -5.73095
ltoes -15.1137
407
root 8.84197 17.5582 15.0472 3.09927 -3.51736 -6.88914
lowerback 4.90556 1.47389 7.82422
upperback 0.433678 2.46336 3.33171
thorax -2.12467 1.16728 -1.09365
lowerneck -16.5376 -2.48956 -7.99927
upperneck 19.6886 -2.39376 4.67494
head 9.06671 -1.2149 2.62835
rclavicle 1.16786e-014 -1.98785e-014
rhumerus -25.5434 -6.82764 -78.2789
rradius 40.1738
rwrist -9.60769
rhand -18.4484 12.0356
rfingers 7.12502
rthumb 7.83757 -17.7991
lclavicle 1.16786e-014 -1.98785e-014
lhumerus -42.2174 18.5672 74.1433
lradius 19.909
lwrist -8.62
lhand -12.4849 22.3646
lfingers 7.12502
lthumb 13.5897 51.901
rfemur 16.2128 -2.35854 29.4128
rtibia 17.6692
rfoot -3.56648 7.31679
rtoes -11.5898
lfemur -30.6006 5.45262 -14.8258
ltibia 28.2751
lfoot -6.90888 -5.54189
ltoes -12.3352
408
root 8.85775 17.5541 15.2153 2.83466 -3.69586 -6.05644
lowerback 4.92214 1.49454 6.90502
upperback 0.41309 2.43972 3.10667
thorax -2.18453 1.1616 -0.818494
lowerneck -16.3563 -2.54507 -8.03153
upperneck 19.7958 -2.5247 4.86737
head 9.08212 -1.26113 2.68559
rclavicle 1.2921e-015 -3.4191e-014
rhumerus -26.1839 -6.41851 -78.6648
rradius 40.5603
rwrist -12.1631
rhand -21.5914 9.73222
rfingers 7.12502
rthumb 4.80332 -20.1933
lclavicle 1.2921e-015 -3.4191e-014
lhumerus -42.254 19.9793 73.0744
lradius 18.6016
lwrist -11.2159
lhand -12.7964 21.485
lfingers 7.12502
lthumb 13.2895 51.0413
rfemur 15.6276 -2.44932 28.2829
rtibia 20.2932
rfoot -3.47227 7.52483
rtoes -10.9323
lfemur -29.8723 5.39472 -15.7115
ltibia 28.0467
lfoot -5.97441 -5.74471
ltoes -11.5032
409
root 8.87021 17.5605 15.3825 2.42931 -3.83674 -4.99776
lowerback 4.99045 1.47788 5.66105
upperback 0.456469 2.34873 2.88717
thorax -2.22324 1.12762 -0.352276
lowerneck -15.9832 -2.57453 -8.1879
upperneck 19.8082 -2.58912 5.00736
head 9.02677 -1.29283 2.75322
rclavicle -3.30976e-014 -5.00937e-014
rhumerus -26.8216 -6.93499 -78.4523
rradius 40.4976
rwrist -11.0552
rhand -21.5504 10.6541
rfingers 7.12502
rthumb 4.84295 -19.2706
lclavicle -3.30976e-014 -5.00937e-014
lhumerus -42.3954 21.3009 72.1596
lradius 17.6652
lwrist -13.2126
lhand -12.5475 22.0935
lfingers 7.12502
lthumb 13.5294 51.634
rfemur 14.9826 -2.55076 26.9025
rtibia 23.0624
rfoot -2.71695 7.7303
rtoes -11.2756
lfemur -28.9227 5.59595 -16.9366
ltibia 27.9671
lfoot -5.29418 -6.3325
ltoes -9.45644
